<svg height="512" viewBox="0 0 512 512" width="512" xmlns="http://www.w3.org/2000/svg"><g id="flat"><path d="m352 24h72l24 136h-32l-40-56z" fill="#b22122"/><path d="m448 384h-376l80-264 104-96h96l24 80-24 72 32 112z" fill="#cb2527"/><circle cx="440" cy="184" fill="#eae9e4" r="48"/><path d="m440 208a24.028 24.028 0 0 1 -24-24 8 8 0 0 1 16 0 8.009 8.009 0 0 0 8 8 8 8 0 0 1 0 16z" fill="#cdccc8"/><path d="m136 296a8.006 8.006 0 0 1 -7.649-10.355l2.461-8a8 8 0 0 1 15.293 4.706l-2.462 8a8 8 0 0 1 -7.643 5.649z" fill="#b22122"/><path d="m148.311 256a8.007 8.007 0 0 1 -7.65-10.355l11.693-38a8 8 0 0 1 15.292 4.706l-11.692 38a8 8 0 0 1 -7.643 5.649z" fill="#b22122"/><path d="m480 424a64 64 0 0 0 -100-52.916 63.965 63.965 0 0 0 -80 6.465 63.934 63.934 0 0 0 -88 0 63.965 63.965 0 0 0 -80-6.465 64 64 0 1 0 0 105.832 63.965 63.965 0 0 0 80-6.465 63.934 63.934 0 0 0 88 0 63.965 63.965 0 0 0 80 6.465 64 64 0 0 0 100-52.916z" fill="#eae9e4"/></g></svg>